<svg width="161" height="161" viewBox="0 0 161 161" fill="none" xmlns="http://www.w3.org/2000/svg">
<g clip-path="url(#clip0_61_4246)">
<path d="M80.4983 160.997C124.956 160.997 160.997 124.956 160.997 80.4983C160.997 36.0403 124.956 0 80.4983 0C36.0403 0 0 36.0403 0 80.4983C0 124.956 36.0403 160.997 80.4983 160.997Z" fill="#215979"/>
<path d="M80.4983 6.56348C39.6635 6.56348 6.56009 39.6669 6.56009 80.4983C6.56009 121.33 39.6635 154.437 80.4983 154.437C121.333 154.437 154.437 121.333 154.437 80.4983C154.437 39.6635 121.337 6.56348 80.4983 6.56348ZM72.4707 147.957C35.2172 143.524 8.60991 109.728 13.0428 72.4741C17.4756 35.2206 51.269 8.60993 88.5259 13.0428C125.783 17.4757 152.387 51.2724 147.954 88.5226C143.521 125.773 109.728 152.39 72.4707 147.957Z" fill="url(#paint0_linear_61_4246)"/>
<path d="M147.954 88.5225C143.521 125.783 109.728 152.39 72.4707 147.957C35.2138 143.524 8.60993 109.728 13.0428 72.474C17.4756 35.2205 51.2691 8.60988 88.526 13.0427C125.783 17.4756 152.387 51.2724 147.954 88.5225Z" fill="#68E1FD"/>
<path d="M147.954 88.5226C143.521 125.783 109.728 152.39 72.4707 147.957C35.2138 143.524 8.60993 109.728 13.0428 72.4741C17.4756 35.2205 51.2691 8.60988 88.5259 13.0427C125.783 17.4756 152.387 51.2724 147.954 88.5226Z" fill="#54BAB9"/>
<path d="M117.755 23.6756C114.605 22.8335 111.398 22.2182 108.159 21.8345C70.9022 17.4016 37.1088 44.0089 32.676 81.2658C31.1802 93.8146 33.2143 106.532 38.5497 117.988C43.8851 129.444 52.3102 139.185 62.878 146.116C30.7675 137.536 9.00038 106.443 13.0428 72.4741C17.4757 35.2172 51.2691 8.60994 88.526 13.0428C98.9624 14.2698 108.97 17.9102 117.755 23.6756Z" fill="url(#paint1_linear_61_4246)"/>
<path d="M76.4256 77.7955V29.926C76.4256 29.926 77.0988 27.3679 79.1856 28.8825L79.8386 77.1189L84.7528 77.0247C84.7528 77.0247 87.1459 65.1802 87.9975 63.854C88.8491 62.5279 92.878 61.0839 92.878 61.0839C92.878 61.0839 92.8444 59.3033 92.4102 58.7816C91.976 58.2599 90.9359 57.1727 91.1278 56.6981C91.3196 56.2236 91.535 55.7759 91.535 55.7759C91.535 55.7759 90.9359 53.1438 91.1749 52.4336C91.1749 52.4336 92.2755 49.7005 92.4102 49.512C92.4738 49.4007 92.5611 49.3048 92.6658 49.231C92.7706 49.1572 92.8903 49.1072 93.0165 49.0848C93.1426 49.0623 93.2722 49.0678 93.396 49.1009C93.5198 49.134 93.6348 49.1939 93.733 49.2764C94.5071 49.7644 96.0319 52.6961 96.0319 52.6961C96.0319 52.6961 97.8831 54.3791 98.0278 56.1091C98.1726 57.8392 96.429 60.7035 96.429 60.7035L99.1217 61.8311C99.1217 61.8311 105.517 64.7931 106.005 65.5538C106.493 66.3145 105.759 67.5733 105.759 67.5733L99.4718 67.6776L97.2301 70.9897L97.5263 76.1395L101.653 78.3475C101.653 78.3475 102.269 79.5794 102.104 79.8655C101.939 80.1516 116.776 80.2963 116.776 80.2963V82.1576C116.776 82.1576 116.658 83.0732 115.456 83.1102C114.255 83.1472 103.221 83.1102 103.221 83.1102L102.373 88.159L102.41 91.2859L105.439 94.4801C105.439 94.4801 105.621 95.8265 104.8 95.7289C103.979 95.6312 99.9699 93.6689 99.9228 92.1206V86.7352L99.2665 82.5649L96.4526 80.5084L94.2883 81.7268L93.2786 88.297L93.5478 93.1607V94.507L92.0534 97.7484C92.0534 97.7484 91.1749 97.9066 91.1749 96.264C91.1749 94.6215 92.427 92.7265 92.427 92.7265C92.137 91.9232 91.7137 91.1744 91.1749 90.5117C90.4176 89.6938 88.7111 81.2892 88.7111 81.2892L77.1325 82.1273L76.4256 77.7955Z" fill="url(#paint2_linear_61_4246)"/>
<path d="M96.4459 94.6954C96.3385 95.2304 96.1016 95.7308 95.7559 96.1529C95.4085 96.5877 95.0245 96.992 94.6081 97.3612C94.3533 97.6251 94.046 97.8326 93.706 97.9704C93.5343 98.0354 93.3474 98.049 93.1681 98.0095C92.9888 97.9701 92.8249 97.8793 92.6963 97.7483C92.5828 97.5841 92.522 97.3892 92.522 97.1895C92.522 96.9899 92.5828 96.795 92.6963 96.6308C92.9334 96.309 93.2183 96.0252 93.5411 95.7893C94.2681 95.1734 94.7596 94.3925 95.4125 93.7193C96.1867 92.9283 96.5603 94.0054 96.4459 94.6954ZM101.744 92.1239C102.09 92.6542 102.56 93.092 103.114 93.3996C103.673 93.7206 104.26 93.9921 104.867 94.2107C105.254 94.3904 105.676 94.4835 106.103 94.4834C106.318 94.4825 106.529 94.4182 106.709 94.2985C106.888 94.1789 107.029 94.009 107.112 93.8102C107.162 93.5837 107.141 93.3475 107.054 93.133C106.966 92.9184 106.815 92.7355 106.621 92.6086C106.229 92.3628 105.801 92.18 105.352 92.0667C104.305 91.7099 103.44 91.0771 102.447 90.6295C101.273 90.1044 101.33 91.4272 101.744 92.1239ZM100.132 67.6809C100.132 67.6809 106.156 70.0942 107.149 70.037C108.142 69.9798 109.031 69.135 108.711 67.9872C108.391 66.8394 99.9363 62.5378 99.9363 62.5378L100.132 67.6809Z" fill="#68E1FD"/>
<path d="M99.6502 67.6809C99.6502 67.6809 105.675 70.0943 106.665 70.0371C107.654 69.9798 108.546 69.135 108.226 67.9872C107.907 66.8395 99.4583 62.5244 99.4583 62.5244L99.6502 67.6809Z" fill="url(#paint3_linear_61_4246)"/>
<path d="M91.3802 75.5168C91.3341 73.7429 91.3791 71.9679 91.5148 70.1987C91.6932 67.7214 90.9191 64.719 92.5246 62.824C92.9958 62.2687 95.3755 61.8412 96.1059 61.8143C97.8359 61.7941 99.8083 62.06 101.155 63.3491C102.201 64.3589 101.417 66.8227 101.299 68.2734C101.077 71.0772 101.407 72.0465 101.437 74.1199C101.458 75.6817 101.407 77.5498 100.148 78.4956C99.4549 79.0038 97.7148 78.9634 96.8565 79.0206C95.6784 79.1048 93.5344 79.3976 92.4539 78.8322C91.434 78.297 91.4172 76.5097 91.3802 75.5168Z" fill="#68E1FD"/>
<path d="M91.3802 75.5168C91.3341 73.7429 91.3791 71.9679 91.5148 70.1987C91.6932 67.7214 90.9191 64.719 92.5246 62.824C92.9958 62.2687 95.3755 61.8412 96.1059 61.8143C97.8359 61.7941 99.8083 62.06 101.155 63.3491C102.201 64.3589 101.417 66.8227 101.299 68.2734C101.077 71.0772 101.407 72.0465 101.437 74.1199C101.458 75.6817 101.407 77.5498 100.148 78.4956C99.4549 79.0038 97.7148 78.9634 96.8565 79.0206C95.6784 79.1048 93.5344 79.3976 92.4539 78.8322C91.434 78.297 91.4172 76.5097 91.3802 75.5168Z" fill="url(#paint4_linear_61_4246)"/>
<path opacity="0.31" d="M91.8918 66.3413L92.2587 70.5352C92.3428 71.5841 92.7665 72.577 93.4656 73.3636C94.1647 74.1501 95.101 74.6874 96.1328 74.894C96.2439 74.9169 96.3563 74.9327 96.4694 74.9411C97.6946 75.0354 99.7781 76.062 99.7781 76.062L94.9514 77.5631L92.4337 76.8058L91.3802 77.0785L91.4946 70.791L91.8918 66.3413Z" fill="url(#paint5_linear_61_4246)"/>
<path d="M94.9682 62.9149C94.9852 63.2071 95.0596 63.493 95.1872 63.7564C95.3149 64.0198 95.4932 64.2554 95.7121 64.4497C96.0773 64.7041 96.5163 64.8307 96.9608 64.8099C97.2094 64.8259 97.4583 64.7844 97.6883 64.6886C97.9183 64.5929 98.1231 64.4455 98.287 64.2579C98.6236 63.7732 98.5192 63.1034 98.3644 62.5244C98.2908 62.1038 98.0858 61.7173 97.7787 61.4204C97.2907 61.0367 96.254 61.0031 95.6784 61.2017C95.0187 61.4305 94.8975 62.3225 94.9682 62.9149Z" fill="#68E1FD"/>
<path d="M94.9682 62.9149C94.9852 63.2071 95.0596 63.493 95.1872 63.7564C95.3149 64.0198 95.4932 64.2554 95.7121 64.4497C96.0773 64.7041 96.5162 64.8307 96.9608 64.8099C97.2094 64.8259 97.4583 64.7844 97.6883 64.6886C97.9183 64.5929 98.1231 64.4455 98.287 64.2579C98.6236 63.7732 98.5192 63.1034 98.3644 62.5244C98.2908 62.1038 98.0858 61.7173 97.7787 61.4204C97.2907 61.0367 96.254 61.0031 95.6784 61.2017C95.0187 61.4305 94.8975 62.3225 94.9682 62.9149Z" fill="url(#paint6_linear_61_4246)"/>
<path d="M93.6556 57.2906C93.6556 56.954 94.0426 54.5979 92.7333 55.1095C92.2789 55.2778 92.4573 55.7827 92.5415 56.2169C92.6727 56.9002 93.6623 57.4555 93.6556 57.2906Z" fill="url(#paint7_linear_61_4246)"/>
<path d="M99.6333 57.3948C99.667 57.0583 99.1722 54.7021 100.438 55.3046C100.875 55.5167 100.653 55.9778 100.529 56.4288C100.34 57.0953 99.6131 57.5564 99.6333 57.3948Z" fill="url(#paint8_linear_61_4246)"/>
<path d="M80.4983 84.857C82.9056 84.857 84.8571 82.9055 84.8571 80.4982C84.8571 78.0909 82.9056 76.1394 80.4983 76.1394C78.091 76.1394 76.1395 78.0909 76.1395 80.4982C76.1395 82.9055 78.091 84.857 80.4983 84.857Z" fill="#68E1FD"/>
<path d="M80.4983 84.857C82.9056 84.857 84.8571 82.9055 84.8571 80.4982C84.8571 78.0909 82.9056 76.1394 80.4983 76.1394C78.091 76.1394 76.1395 78.0909 76.1395 80.4982C76.1395 82.9055 78.091 84.857 80.4983 84.857Z" fill="url(#paint9_linear_61_4246)"/>
<path d="M80.357 27.3342C80.7774 27.3342 81.1807 27.5013 81.478 27.7986C81.7753 28.0959 81.9423 28.4991 81.9423 28.9196V81.7167H78.7615V28.9196C78.7615 28.4991 78.9286 28.0959 79.2259 27.7986C79.5232 27.5013 79.9264 27.3342 80.3469 27.3342H80.357Z" fill="#25233A"/>
<path d="M116.012 78.886H80.1887C79.4061 78.886 78.7716 79.5197 78.7716 80.3013C78.7716 81.083 79.4061 81.7167 80.1887 81.7167H116.012C116.794 81.7167 117.429 81.083 117.429 80.3013C117.429 79.5197 116.794 78.886 116.012 78.886Z" fill="#25233A"/>
<path d="M95.6313 62.7399C95.6142 63.0614 95.6706 63.3826 95.7962 63.679C95.8865 63.8335 96 63.9731 96.1328 64.093C96.2879 64.2816 96.4989 64.4159 96.7353 64.4767C96.866 64.4926 96.9987 64.477 97.1222 64.4314C97.2457 64.3857 97.3565 64.3113 97.4455 64.2142C97.6168 64.0167 97.7329 63.7775 97.7821 63.5208C97.8927 62.9576 97.9109 62.3801 97.836 61.8109L97.7619 60.8584C97.7647 60.4391 97.6554 60.0266 97.4455 59.6635C97.3523 59.5338 97.2334 59.4247 97.0961 59.3431C96.9589 59.2614 96.8063 59.2089 96.6478 59.1889C94.9884 58.9802 95.6077 61.8109 95.6313 62.7399Z" fill="url(#paint10_linear_61_4246)"/>
<path d="M99.9901 53.265C99.9901 53.265 100.451 59.8554 97.1022 60.7036C93.7532 61.5518 93.282 55.9913 93.1877 54.0526C93.0935 52.1139 94.6014 50.4881 97.1022 50.7978C98.2567 50.9425 99.7444 51.6965 99.9901 53.265Z" fill="url(#paint11_linear_61_4246)"/>
<path d="M94.4095 49.2765C95.0557 48.3173 96.5333 48.2129 97.5162 48.8221C97.9672 49.1049 98.3475 49.4953 98.8457 49.6939C99.2025 49.8319 99.5996 49.8521 99.9665 49.9665C100.333 50.085 100.662 50.3001 100.917 50.5891C101.172 50.8781 101.344 51.2305 101.416 51.6092C101.488 51.9879 101.457 52.379 101.326 52.7414C101.194 53.1038 100.968 53.4242 100.67 53.669C100.303 53.9652 99.8487 54.1369 99.4549 54.396C99.4549 53.9989 99.0241 53.6151 98.6942 53.3863C98.3541 53.1723 97.9617 53.0559 97.5599 53.0497L97.6643 53.2752C97.089 53.4561 96.4708 53.4478 95.9006 53.2516C95.2644 53.0328 94.5912 52.5785 93.982 52.8679C93.6858 53.0093 93.3862 53.3156 93.0934 53.1675C93.0126 53.11 92.9465 53.0344 92.9003 52.9467C92.8541 52.859 92.8292 52.7617 92.8275 52.6626C92.6356 51.3802 93.6521 50.3738 94.4095 49.2765Z" fill="#25233A"/>
<path d="M92.528 62.824C91.8446 63.0697 91.2315 63.4788 90.7423 64.0155C90.253 64.5523 89.9024 65.2005 89.7209 65.9038C89.1217 68.307 86.9642 77.8021 86.9642 77.8021C86.9642 77.8021 89.0376 78.0377 89.7444 77.8964L91.801 69.4817C91.801 69.4817 91.7168 64.4867 92.528 62.824Z" fill="#68E1FD"/>
<path d="M92.528 62.824C91.8446 63.0697 91.2315 63.4788 90.7423 64.0155C90.253 64.5523 89.9024 65.2005 89.7209 65.9038C89.1217 68.307 86.9642 77.8021 86.9642 77.8021C86.9642 77.8021 89.0376 78.0377 89.7444 77.8964L91.801 69.4817C91.801 69.4817 91.7168 64.4867 92.528 62.824Z" fill="url(#paint12_linear_61_4246)"/>
<path d="M92.4303 96.2338C92.4256 96.4077 92.4675 96.5796 92.5515 96.7319C92.6391 96.8514 92.7544 96.9478 92.8875 97.0128C93.0206 97.0779 93.1675 97.1097 93.3156 97.1055C93.8466 97.0981 94.3543 96.8859 94.7326 96.5131C95.1045 96.142 95.4077 95.7078 95.6279 95.2307C95.772 94.975 95.8775 94.6994 95.941 94.4128C96.0722 93.7397 95.7996 93.0328 95.5337 92.3933C95.6313 92.6357 94.2412 92.814 94.1133 92.814C93.568 92.814 93.6421 93.1506 93.4603 93.6017C93.117 94.4633 92.4236 95.2543 92.4303 96.2338Z" fill="#25233A"/>
<path d="M93.5377 91.2151L94.2109 93.1404C94.2109 93.1404 94.635 93.9314 95.2812 93.3457C95.2812 93.3457 95.4966 93.127 95.5404 92.3764L94.9682 90.6665L93.5377 91.2151Z" fill="url(#paint13_linear_61_4246)"/>
<path d="M106.22 79.216C105.776 82.8579 104.107 88.0851 104.033 88.0851C103.666 87.9808 102.013 88.3981 101.639 88.2568C101.444 88.1793 101.33 84.3019 101.437 82.2823C101.474 81.6092 101.474 79.5526 101.474 78.8862L96.8598 79.0208L95.941 79.078C95.9474 79.9476 95.8765 80.8161 95.7289 81.6731C95.2375 85.2746 94.736 87.0585 94.911 90.6768C94.8874 91.2659 93.6353 91.5082 93.2079 91.0538C91.2927 89.0074 91.1648 86.8431 90.771 84.0662C90.5084 82.215 89.6468 75.4462 92.0365 74.9414C92.3886 74.8619 92.75 74.8324 93.1103 74.8538C93.6757 74.8942 94.7696 74.9245 95.1298 75.4058C95.251 75.4664 97.6677 76.6781 99.7074 76.0588L101.862 73.8373C102.158 73.4643 102.57 73.2011 103.033 73.0895C103.496 72.9779 103.983 73.0243 104.416 73.2214C105.258 73.6186 105.897 74.5677 106.166 75.6549C106.436 76.7421 106.365 78.0279 106.22 79.216Z" fill="#68E1FD"/>
<path d="M101.478 90.8281C101.457 90.978 101.468 91.1307 101.511 91.2758C101.576 91.4152 101.675 91.5366 101.798 91.6292C102.812 92.5204 104.021 93.1614 105.328 93.5006C105.607 93.5943 105.908 93.5943 106.187 93.5006C106.398 93.3811 106.557 93.188 106.635 92.9582C106.712 92.7285 106.703 92.4782 106.607 92.2552C106.401 91.8154 106.073 91.4439 105.662 91.1849C105.25 90.9279 104.889 90.597 104.598 90.2088C104.497 89.9755 104.338 89.7717 104.137 89.6164C103.975 89.5489 103.8 89.5212 103.625 89.5356C103.231 89.5356 102.08 89.3572 101.761 89.5659C101.441 89.7746 101.498 90.4107 101.478 90.8281Z" fill="#25233A"/>
<path d="M101.69 88.2565L101.878 89.8654C102.179 90.1363 102.528 90.3465 102.908 90.4848C103.003 90.5137 103.103 90.5201 103.201 90.5033C103.298 90.4865 103.391 90.4471 103.47 90.3881C103.55 90.3292 103.614 90.2524 103.659 90.164C103.703 90.0756 103.726 89.9779 103.726 89.8789V89.7476L103.821 88.0647L101.69 88.2565Z" fill="url(#paint14_linear_61_4246)"/>
<path d="M108.324 67.9907L99.2732 66.0957L98.8625 68.5461C98.8625 68.5461 106.331 71.784 107.563 70.8349C108.795 69.8857 108.863 68.5999 108.324 67.9907Z" fill="#68E1FD"/>
<path d="M108.324 67.9907L99.2732 66.0957L98.8625 68.5461C98.8625 68.5461 106.331 71.784 107.563 70.8349C108.795 69.8857 108.863 68.5999 108.324 67.9907Z" fill="url(#paint15_linear_61_4246)"/>
<path d="M99.2193 66.3919C99.2193 66.3919 96.2237 65.0455 95.076 65.1263C93.9282 65.2071 93.9484 66.025 93.9484 66.025V66.9203C93.9437 67.0966 93.9915 67.2703 94.0855 67.4195C94.1796 67.5687 94.3158 67.6866 94.4768 67.7584C94.792 67.905 95.1404 67.9654 95.4866 67.9334C96.217 67.8224 96.3651 67.4488 96.3651 67.4488C96.3651 67.4488 97.0147 68.1017 97.4152 67.9503C97.9125 67.7445 98.4659 67.7183 98.9804 67.8762L99.2193 66.3919Z" fill="url(#paint16_linear_61_4246)"/>
<path d="M98.5394 65.9744L98.1793 67.9703L98.8827 68.0679L99.1958 66.1258L98.5394 65.9744Z" fill="#25233A"/>
<path d="M98.5394 65.9744L98.4317 66.5971L99.0948 66.7081L99.1958 66.1258L98.5394 65.9744Z" fill="#25233A"/>
<path d="M98.3166 65.6143L99.5818 65.8613L99.5145 66.2046L98.2493 65.9579L98.3166 65.6143Z" fill="#68E1FD"/>
<path d="M98.3165 65.6145L99.5818 65.8614L99.5147 66.2049L98.2495 65.9581L98.3165 65.6145Z" fill="url(#paint17_linear_61_4246)"/>
<path d="M93.6555 53.4704C93.6219 54.3559 93.5241 55.2379 93.3627 56.1092C93.3734 55.869 93.3485 55.6286 93.2886 55.3957C93.2719 55.2978 93.2275 55.2067 93.1607 55.1331C93.1272 55.0963 93.0817 55.0727 93.0323 55.0666C92.9829 55.0604 92.933 55.0721 92.8915 55.0995C92.9352 54.6283 92.7467 54.1638 92.7602 53.6892C92.769 53.3431 92.8868 53.0086 93.0968 52.7333C93.1057 52.7168 93.1199 52.7037 93.1372 52.6962C93.1578 52.6885 93.1805 52.6885 93.2011 52.6962C93.3529 52.7553 93.4804 52.8639 93.5628 53.0043C93.6453 53.1448 93.678 53.309 93.6555 53.4704ZM99.7376 56.4728L99.9632 55.4091C99.9632 55.3452 99.9968 55.2678 100.061 55.2476C100.125 55.2274 100.131 55.2476 100.158 55.2173C100.171 55.2016 100.181 55.1832 100.185 55.1634L100.458 54.2984C100.498 54.1638 100.539 54.0325 100.569 53.8945C100.586 53.8317 100.586 53.7655 100.569 53.7026C100.543 53.6297 100.492 53.5686 100.424 53.531C100.364 53.4904 100.297 53.4627 100.226 53.4495C100.154 53.4363 100.081 53.438 100.011 53.4545C99.9403 53.4709 99.8739 53.5017 99.8159 53.545C99.7579 53.5883 99.7095 53.6431 99.6737 53.706C99.6183 53.7953 99.5846 53.8962 99.5753 54.0009C99.5659 54.1055 99.5812 54.2108 99.6198 54.3085C99.7851 55.0175 99.8249 55.75 99.7376 56.4728Z" fill="#25233A"/>
<path d="M98.3106 65.621L98.425 65.5537L99.4987 65.759L99.5762 65.8667L98.3106 65.621Z" fill="#68E1FD"/>
<path d="M98.3106 65.621L98.425 65.5537L99.4987 65.759L99.5762 65.8667L98.3106 65.621Z" fill="url(#paint18_linear_61_4246)"/>
<path d="M86.3314 78.0345C86.1469 78.0707 85.9738 78.1507 85.8268 78.2679C85.6797 78.3851 85.563 78.5359 85.4866 78.7077C85.3934 79.0486 85.3876 79.4074 85.4698 79.7511C85.4904 79.9417 85.5403 80.1279 85.6179 80.3031C85.6508 80.3832 85.706 80.4522 85.777 80.5017C85.8481 80.5513 85.9319 80.5793 86.0184 80.5825C86.2641 80.5589 86.4055 80.2224 86.4189 79.9262C86.3988 79.6303 86.3988 79.3334 86.4189 79.0376C86.3887 79.4038 86.3887 79.7719 86.4189 80.1382C86.4148 80.2836 86.4652 80.4253 86.5603 80.5354C86.6005 80.5642 86.6481 80.5811 86.6976 80.5841C86.747 80.5871 86.7963 80.576 86.8397 80.5522C86.9457 80.4876 87.0352 80.3992 87.1012 80.2941C87.1672 80.1889 87.2079 80.0699 87.22 79.9464C87.2519 79.6842 87.2451 79.4189 87.1998 79.1587C87.2431 79.3464 87.2511 79.5404 87.2234 79.7309C87.194 79.9212 87.2137 80.1159 87.2806 80.2964C87.3614 80.4647 87.56 80.5657 87.6879 80.4512C87.7705 80.3581 87.8181 80.2391 87.8225 80.1146C87.873 79.8021 87.89 79.485 87.873 79.1688C87.8213 79.4917 87.8373 79.8218 87.9201 80.1382C88.0278 80.4378 88.3139 80.6767 88.5697 80.5657C88.6734 80.4982 88.7585 80.4059 88.8172 80.2971C88.876 80.1884 88.9067 80.0666 88.9063 79.943C88.9332 79.6838 88.9063 79.4213 88.9063 79.1621C88.9061 79.1137 88.9153 79.0657 88.9332 79.0207C89.0039 78.8861 89.1722 78.95 89.3035 78.9332C89.4348 78.9164 89.6098 78.7077 89.6401 78.499C89.6631 78.2859 89.6471 78.0703 89.593 77.8629C88.9951 77.8769 88.397 77.8522 87.8023 77.7888C87.3014 77.7834 86.8034 77.8666 86.3314 78.0345Z" fill="url(#paint19_linear_61_4246)"/>
<path d="M106.271 79.216C105.827 82.8579 104.157 88.0851 104.083 88.0851C103.729 88.0642 103.373 88.0902 103.026 88.1625C102.474 88.2433 101.885 88.3342 101.68 88.2568C101.663 88.2568 101.65 88.2197 101.633 88.1625C101.474 87.5769 101.387 84.3793 101.468 82.4877V82.2823C101.505 81.6092 101.501 79.5526 101.501 78.8862L96.8902 79.0208L95.9713 79.078C95.9778 79.9476 95.9068 80.8161 95.7592 81.6731C95.2678 85.2746 94.7663 87.0585 94.9413 90.6768C94.9245 91.0572 94.3994 91.2928 93.9147 91.2894C93.668 91.3032 93.4259 91.2185 93.2416 91.0538C91.3264 89.0074 91.1985 86.8431 90.8047 84.0662C90.5421 82.215 89.6805 75.4462 92.0702 74.9414C92.4222 74.8619 92.7837 74.8324 93.1439 74.8538C93.7094 74.8942 94.8033 74.9245 95.1635 75.4058C95.2846 75.4664 97.7013 76.6781 99.7411 76.0588L101.895 73.8373C102.191 73.4643 102.604 73.2011 103.067 73.0895C103.529 72.9779 104.016 73.0243 104.45 73.2214C105.291 73.6186 105.931 74.5677 106.2 75.6549C106.469 76.7421 106.416 78.0279 106.271 79.216Z" fill="url(#paint20_linear_61_4246)"/>
<path d="M93.9349 91.2892C93.6881 91.303 93.446 91.2183 93.2617 91.0536C91.3465 89.0072 91.2186 86.8429 90.8248 84.0661C90.5623 82.2148 89.7006 75.446 92.0904 74.9412C91.302 76.5126 91.0524 78.2997 91.3802 80.027C91.9423 82.8005 93.9349 91.2892 93.9349 91.2892Z" fill="url(#paint21_linear_61_4246)"/>
<path d="M103.026 88.1625C102.474 88.2433 101.885 88.3342 101.68 88.2568C101.663 88.2568 101.649 88.2197 101.633 88.1625C101.474 87.5769 101.387 84.3793 101.468 82.4877V82.2823C101.505 81.6092 101.501 79.5526 101.501 78.8862L95.9712 79.078L95.7457 77.1527C95.7457 77.1527 98.8087 77.9101 99.7242 77.7956C100.64 77.6812 101.676 76.7859 101.676 76.7859C101.676 76.7859 102.949 75.0188 103.326 76.7859C103.703 78.425 103.1 87.1191 103.026 88.1625Z" fill="url(#paint22_linear_61_4246)"/>
<path d="M81.9423 142.232C81.9423 141.356 81.2325 140.646 80.357 140.646C79.4814 140.646 78.7716 141.356 78.7716 142.232V144.463C78.7716 145.339 79.4814 146.049 80.357 146.049C81.2325 146.049 81.9423 145.339 81.9423 144.463V142.232Z" fill="white"/>
<path d="M81.9423 17.0077C81.9423 16.1321 81.2325 15.4224 80.357 15.4224C79.4814 15.4224 78.7716 16.1321 78.7716 17.0077V19.2393C78.7716 20.1148 79.4814 20.8246 80.357 20.8246C81.2325 20.8246 81.9423 20.1148 81.9423 19.2393V17.0077Z" fill="white"/>
<path d="M81.9423 142.232C81.9423 141.356 81.2325 140.646 80.357 140.646C79.4814 140.646 78.7716 141.356 78.7716 142.232V144.463C78.7716 145.339 79.4814 146.049 80.357 146.049C81.2325 146.049 81.9423 145.339 81.9423 144.463V142.232Z" fill="white"/>
<path d="M36.4154 34.5543C35.7963 33.9352 34.7925 33.9352 34.1734 34.5543C33.5543 35.1734 33.5543 36.1772 34.1734 36.7963L35.7514 38.3743C36.3705 38.9934 37.3742 38.9934 37.9934 38.3743C38.6125 37.7551 38.6125 36.7514 37.9934 36.1323L36.4154 34.5543Z" fill="white"/>
<path d="M124.964 123.1C124.345 122.481 123.341 122.481 122.722 123.1C122.103 123.72 122.103 124.723 122.722 125.342L124.3 126.92C124.919 127.54 125.923 127.54 126.542 126.92C127.161 126.301 127.161 125.298 126.542 124.678L124.964 123.1Z" fill="white"/>
<path d="M16.6274 79.1519C15.7519 79.1519 15.0421 79.8616 15.0421 80.7372C15.0421 81.6127 15.7519 82.3225 16.6274 82.3225H18.859C19.7345 82.3225 20.4443 81.6127 20.4443 80.7372C20.4443 79.8616 19.7345 79.1519 18.859 79.1519H16.6274Z" fill="white"/>
<path d="M141.852 79.1484C140.976 79.1484 140.266 79.8582 140.266 80.7338C140.266 81.6093 140.976 82.3191 141.852 82.3191H144.083C144.959 82.3191 145.668 81.6093 145.668 80.7338C145.668 79.8582 144.959 79.1484 144.083 79.1484H141.852Z" fill="white"/>
<path d="M34.1738 124.679C33.5547 125.299 33.5547 126.302 34.1738 126.921C34.7929 127.541 35.7967 127.541 36.4158 126.921L37.9937 125.344C38.6129 124.724 38.6129 123.721 37.9937 123.102C37.3746 122.482 36.3709 122.482 35.7518 123.102L34.1738 124.679Z" fill="white"/>
<path d="M122.721 36.1297C122.102 36.7488 122.102 37.7526 122.721 38.3717C123.34 38.9908 124.344 38.9908 124.963 38.3717L126.541 36.7937C127.16 36.1746 127.16 35.1708 126.541 34.5517C125.922 33.9326 124.918 33.9326 124.299 34.5517L122.721 36.1297Z" fill="white"/>
</g>
<defs>
<linearGradient id="paint0_linear_61_4246" x1="51.1142" y1="-98.2802" x2="98.3105" y2="188.873" gradientUnits="userSpaceOnUse">
<stop stop-opacity="0"/>
<stop offset="0.88" stop-opacity="0.8"/>
<stop offset="0.97"/>
</linearGradient>
<linearGradient id="paint1_linear_61_4246" x1="-14.4362" y1="29.788" x2="351.751" y2="225.393" gradientUnits="userSpaceOnUse">
<stop stop-color="white" stop-opacity="0"/>
<stop offset="0.84" stop-color="white" stop-opacity="0.84"/>
<stop offset="0.97" stop-color="white"/>
</linearGradient>
<linearGradient id="paint2_linear_61_4246" x1="100.768" y1="-56.116" x2="92.7064" y2="160.734" gradientUnits="userSpaceOnUse">
<stop stop-opacity="0"/>
<stop offset="0.88" stop-opacity="0.8"/>
<stop offset="0.97"/>
</linearGradient>
<linearGradient id="paint3_linear_61_4246" x1="104.322" y1="64.8199" x2="102.047" y2="69.1148" gradientUnits="userSpaceOnUse">
<stop stop-opacity="0"/>
<stop offset="0.88" stop-opacity="0.8"/>
<stop offset="0.97"/>
</linearGradient>
<linearGradient id="paint4_linear_61_4246" x1="96.9776" y1="60.1448" x2="95.6515" y2="87.2502" gradientUnits="userSpaceOnUse">
<stop stop-opacity="0"/>
<stop offset="0.5" stop-opacity="0.19"/>
<stop offset="0.55" stop-opacity="0.24"/>
<stop offset="0.97"/>
</linearGradient>
<linearGradient id="paint5_linear_61_4246" x1="96.3953" y1="52.7331" x2="95.0961" y2="87.7281" gradientUnits="userSpaceOnUse">
<stop stop-opacity="0"/>
<stop offset="0.88" stop-opacity="0.8"/>
<stop offset="0.97"/>
</linearGradient>
<linearGradient id="paint6_linear_61_4246" x1="97.0954" y1="59.3673" x2="96.1934" y2="68.4652" gradientUnits="userSpaceOnUse">
<stop stop-opacity="0"/>
<stop offset="0.5" stop-opacity="0.19"/>
<stop offset="0.55" stop-opacity="0.24"/>
<stop offset="0.97"/>
</linearGradient>
<linearGradient id="paint7_linear_61_4246" x1="92.4337" y1="56.1799" x2="93.706" y2="56.1799" gradientUnits="userSpaceOnUse">
<stop stop-color="#ECC4D7"/>
<stop offset="0.42" stop-color="#EFD4D1"/>
<stop offset="1" stop-color="#F2EAC9"/>
</linearGradient>
<linearGradient id="paint8_linear_61_4246" x1="99.566" y1="56.3178" x2="100.697" y2="56.3178" gradientUnits="userSpaceOnUse">
<stop stop-color="#ECC4D7"/>
<stop offset="0.42" stop-color="#EFD4D1"/>
<stop offset="1" stop-color="#F2EAC9"/>
</linearGradient>
<linearGradient id="paint9_linear_61_4246" x1="80.3266" y1="62.7129" x2="80.6094" y2="91.7133" gradientUnits="userSpaceOnUse">
<stop stop-opacity="0"/>
<stop offset="0.88" stop-opacity="0.8"/>
<stop offset="0.97"/>
</linearGradient>
<linearGradient id="paint10_linear_61_4246" x1="96.6882" y1="61.7773" x2="96.8901" y2="64.2882" gradientUnits="userSpaceOnUse">
<stop stop-color="#ECC4D7"/>
<stop offset="0.42" stop-color="#EFD4D1"/>
<stop offset="1" stop-color="#F2EAC9"/>
</linearGradient>
<linearGradient id="paint11_linear_61_4246" x1="96.5603" y1="50.8281" x2="96.705" y2="63.053" gradientUnits="userSpaceOnUse">
<stop stop-color="#ECC4D7"/>
<stop offset="0.42" stop-color="#EFD4D1"/>
<stop offset="1" stop-color="#F2EAC9"/>
</linearGradient>
<linearGradient id="paint12_linear_61_4246" x1="88.6135" y1="70.0303" x2="93.4166" y2="71.2319" gradientUnits="userSpaceOnUse">
<stop stop-opacity="0"/>
<stop offset="0.5" stop-opacity="0.19"/>
<stop offset="0.55" stop-opacity="0.24"/>
<stop offset="0.97"/>
</linearGradient>
<linearGradient id="paint13_linear_61_4246" x1="94.7124" y1="87.0684" x2="94.3724" y2="96.2135" gradientUnits="userSpaceOnUse">
<stop stop-color="#ECC4D7"/>
<stop offset="0.42" stop-color="#EFD4D1"/>
<stop offset="1" stop-color="#F2EAC9"/>
</linearGradient>
<linearGradient id="paint14_linear_61_4246" x1="102.875" y1="84.9715" x2="102.585" y2="92.7567" gradientUnits="userSpaceOnUse">
<stop stop-color="#ECC4D7"/>
<stop offset="0.42" stop-color="#EFD4D1"/>
<stop offset="1" stop-color="#F2EAC9"/>
</linearGradient>
<linearGradient id="paint15_linear_61_4246" x1="104.12" y1="66.9978" x2="103.046" y2="71.1041" gradientUnits="userSpaceOnUse">
<stop stop-opacity="0"/>
<stop offset="0.88" stop-opacity="0.8"/>
<stop offset="0.97"/>
</linearGradient>
<linearGradient id="paint16_linear_61_4246" x1="99.7411" y1="67.1795" x2="95.3486" y2="66.5467" gradientUnits="userSpaceOnUse">
<stop stop-color="#ECC4D7"/>
<stop offset="0.42" stop-color="#EFD4D1"/>
<stop offset="1" stop-color="#F2EAC9"/>
</linearGradient>
<linearGradient id="paint17_linear_61_4246" x1="98.9215" y1="65.56" x2="98.8979" y2="66.2534" gradientUnits="userSpaceOnUse">
<stop stop-opacity="0"/>
<stop offset="0.88" stop-opacity="0.8"/>
<stop offset="0.97"/>
</linearGradient>
<linearGradient id="paint18_linear_61_4246" x1="98.977" y1="65.2609" x2="98.9232" y2="66.0418" gradientUnits="userSpaceOnUse">
<stop stop-color="white" stop-opacity="0"/>
<stop offset="0.84" stop-color="white" stop-opacity="0.84"/>
<stop offset="0.97" stop-color="white"/>
</linearGradient>
<linearGradient id="paint19_linear_61_4246" x1="85.4125" y1="79.2025" x2="89.6468" y2="79.2025" gradientUnits="userSpaceOnUse">
<stop stop-color="#ECC4D7"/>
<stop offset="0.42" stop-color="#EFD4D1"/>
<stop offset="1" stop-color="#F2EAC9"/>
</linearGradient>
<linearGradient id="paint20_linear_61_4246" x1="98.0447" y1="71.7943" x2="99.4348" y2="96.18" gradientUnits="userSpaceOnUse">
<stop stop-color="white" stop-opacity="0"/>
<stop offset="0.84" stop-color="white" stop-opacity="0.84"/>
<stop offset="0.97" stop-color="white"/>
</linearGradient>
<linearGradient id="paint21_linear_61_4246" x1="94.8134" y1="83.0462" x2="87.2334" y2="83.3323" gradientUnits="userSpaceOnUse">
<stop stop-opacity="0"/>
<stop offset="0.88" stop-opacity="0.8"/>
<stop offset="0.97"/>
</linearGradient>
<linearGradient id="paint22_linear_61_4246" x1="105.705" y1="71.387" x2="94.0157" y2="92.2655" gradientUnits="userSpaceOnUse">
<stop stop-opacity="0"/>
<stop offset="0.91" stop-opacity="0.8"/>
<stop offset="1"/>
</linearGradient>
<clipPath id="clip0_61_4246">
<rect width="161" height="161" fill="white"/>
</clipPath>
</defs>
</svg>
