<svg width="120" height="120" viewBox="0 0 120 120" fill="none" xmlns="http://www.w3.org/2000/svg">
<path d="M115 118.333H5.88875C5.15542 118.333 4.55542 117.733 4.55542 117V111.778C4.55542 111.044 5.15542 110.444 5.88875 110.444H115C115.733 110.444 116.333 111.044 116.333 111.778V117C116.333 117.733 115.733 118.333 115 118.333Z" fill="#F7F7F7"/>
<path d="M61.3333 112.333C81.8292 112.333 98.4444 95.7181 98.4444 75.2222C98.4444 54.7263 81.8292 38.1111 61.3333 38.1111C40.8374 38.1111 24.2222 54.7263 24.2222 75.2222C24.2222 95.7181 40.8374 112.333 61.3333 112.333Z" fill="#F3FAFF"/>
<path d="M107.333 101.433C108.122 99.4222 108.922 97.1889 108.178 95.1666C108 94.6778 107.722 94.1555 107.889 93.6555C108.111 92.9778 109 92.7444 109.289 92.1C109.622 91.3889 109.1 90.5666 109.233 89.8C109.367 89.0222 110.133 88.5111 110.878 88.2333C111.622 87.9555 112.433 87.7778 113.033 87.2667C114.178 86.2667 114.044 84.4778 113.789 82.9666C113.533 81.4666 113.344 79.6889 114.444 78.6333C112.422 79.0222 110.356 79.4222 108.6 80.4889C106.844 81.5555 105.444 83.4444 105.544 85.5C105.6 86.5333 106 87.6333 105.533 88.5444C105.022 89.5333 103.656 89.9222 103.311 90.9778C102.911 92.1889 104.1 93.3 104.567 94.4889C105.011 95.6111 104.8 96.8666 104.9 98.0555C105 99.2555 105.622 100.611 106.811 100.789L107.333 101.433Z" fill="#FFBE55"/>
<path opacity="0.31" d="M107.333 101.433C108.122 99.4222 108.922 97.1889 108.178 95.1666C108 94.6778 107.722 94.1555 107.889 93.6555C108.111 92.9778 109 92.7444 109.289 92.1C109.622 91.3889 109.1 90.5666 109.233 89.8C109.367 89.0222 110.133 88.5111 110.878 88.2333C111.622 87.9555 112.433 87.7778 113.033 87.2667C114.178 86.2667 114.044 84.4778 113.789 82.9666C113.533 81.4666 113.344 79.6889 114.444 78.6333C112.422 79.0222 110.356 79.4222 108.6 80.4889C106.844 81.5555 105.444 83.4444 105.544 85.5C105.6 86.5333 106 87.6333 105.533 88.5444C105.022 89.5333 103.656 89.9222 103.311 90.9778C102.911 92.1889 104.1 93.3 104.567 94.4889C105.011 95.6111 104.8 96.8666 104.9 98.0555C105 99.2555 105.622 100.611 106.811 100.789L107.333 101.433Z" fill="white"/>
<path d="M106.522 98.8C106.5 92.9555 107.633 80.7222 114.378 78.6778" stroke="white" stroke-width="0.0833333" stroke-miterlimit="10" stroke-linecap="round"/>
<path d="M102.633 100.944C101.433 98.7 100.189 96.2 100.778 93.7222C100.922 93.1222 101.167 92.4778 100.911 91.9111C100.567 91.1555 99.489 90.9889 99.0556 90.2778C98.5779 89.5 99.0667 88.4555 98.8001 87.5778C98.5334 86.6778 97.5667 86.2 96.6667 85.9667C95.7667 85.7444 94.789 85.6555 94.0112 85.1222C92.5334 84.1111 92.4445 81.9889 92.5334 80.2C92.6223 78.4111 92.6001 76.3 91.1667 75.2222C93.589 75.4 96.0668 75.5889 98.2668 76.6C100.467 77.6111 102.378 79.6333 102.533 82.0555C102.611 83.2667 102.289 84.6111 102.967 85.6222C103.7 86.7111 105.356 86.9778 105.911 88.1667C106.545 89.5333 105.311 90.9889 104.922 92.4444C104.567 93.8111 104.978 95.2555 105.022 96.6667C105.067 98.0778 104.522 99.7555 103.156 100.133L102.633 100.944Z" fill="#FFBE55"/>
<path d="M103.222 97.7444C102.444 90.8889 99.4443 76.7222 91.2554 75.2667" stroke="white" stroke-width="0.0833333" stroke-miterlimit="10" stroke-linecap="round"/>
<path d="M110.222 114.111H99.6666C98.9332 114.111 98.3332 113.511 98.3332 112.778L97.4443 97.5556C97.4443 96.8222 98.0443 96.2222 98.7777 96.2222H111.111C111.844 96.2222 112.444 96.8222 112.444 97.5556L111.555 112.778C111.555 113.511 110.955 114.111 110.222 114.111Z" fill="#CCE9FF"/>
<path d="M14.5051 65.7671L21.3162 64.7343L25.9469 95.2741L19.1358 96.3069L14.5051 65.7671Z" fill="#FFBE55"/>
<path d="M17.9082 65.2536L21.3137 64.7373L25.9444 95.2771L22.5389 95.7934L17.9082 65.2536Z" fill="#FFBE55"/>
<path d="M21.3221 64.7667L14.511 65.8L16.111 61.7L17.0221 59.3889L18.5777 61.3333L21.3221 64.7667Z" fill="#FFEBC2"/>
<path d="M18.5778 61.3333L16.1111 61.7L17.0222 59.3889L18.5778 61.3333Z" fill="#0E538C"/>
<path d="M26.7905 57.7424L33.6519 58.3568L30.8969 89.1221L24.0355 88.5077L26.7905 57.7424Z" fill="#FFBE55"/>
<path d="M30.2278 58.0521L33.6584 58.3593L30.9035 89.1246L27.4728 88.8174L30.2278 58.0521Z" fill="#FFBE55"/>
<path d="M33.6555 58.3889L26.7888 57.7778L29.3222 54.1778L30.7555 52.1445L31.7999 54.4L33.6555 58.3889Z" fill="#FFEBC2"/>
<path d="M31.8 54.4L29.3223 54.1778L30.7556 52.1445L31.8 54.4Z" fill="#0E538C"/>
<path d="M38.1668 114.222H11.1001L7.55566 72.3333H40.3334L38.1668 114.222Z" fill="#CCE9FF"/>
<path opacity="0.5" d="M23.9443 114.222H38.1666L40.3332 72.3333H23.9443V114.222Z" fill="#CCE9FF"/>
<path d="M29.8889 102.4H98.6667V111.856H29.8889V102.4Z" fill="#FFEBC2"/>
<path d="M30.1777 102.4V111.856H102.333V112.567C102.333 113.444 101.567 114.156 100.622 114.156H30.4888C28.2554 114.156 26.4443 112.489 26.4443 110.422V104.1C26.4443 102.033 28.2554 100.367 30.4888 100.367H100.622C101.567 100.367 102.333 101.078 102.333 101.956V102.411H30.1777V102.4Z" fill="#FFBE55"/>
<path d="M29.8889 106.611H98.6667V111.844H29.8889V106.611Z" fill="#FFEBC2"/>
<path d="M38.7778 90.8889H94.6667V99.1111H38.7778V90.8889Z" fill="#CCE9FF"/>
<path d="M38.7778 90.8889V99.1111H96.7778V99.7333C96.7778 100.5 96.1556 101.111 95.4001 101.111H39.0223C37.2334 101.111 35.7778 99.6556 35.7778 97.8667V92.3667C35.7778 90.5778 37.2334 89.1222 39.0223 89.1222H95.4001C96.1556 89.1222 96.7778 89.7445 96.7778 90.5V90.9H38.7778V90.8889Z" fill="#2A94F4"/>
<path d="M62.9333 62.9C62.1666 61.8889 62.0999 60.5 62.8222 59.4444C63.3999 58.6 63.7888 57.5556 63.7444 56.7889C63.6555 55.4111 62.7999 54.1444 61.6333 53.3889C60.0999 52.3889 58.0555 52.2445 56.3999 53.0222C54.7444 53.8 53.5444 55.4667 53.3333 57.2778C53.1777 58.5778 53.4777 60 52.811 61.1333C52.3222 61.9445 51.4222 62.4222 50.5333 62.7445C49.6333 63.0556 48.6888 63.2667 47.8666 63.7445C47.0444 64.2222 46.3444 65.0444 46.3555 66C46.3666 66.7222 46.7777 67.3889 46.8222 68.1C46.8888 69.1445 46.1555 70.0667 45.3777 70.7556C44.5888 71.4444 43.6888 72.0444 43.1555 72.9444C42.2777 74.4333 42.6888 76.4444 43.7999 77.7778C44.9111 79.1111 46.5777 79.8556 48.2444 80.2889C52.7999 81.4889 57.5999 80.7111 62.2999 80.6333C63.7555 80.6111 65.2444 80.6556 66.6555 80.2889C68.0666 79.9222 69.4444 79.0778 70.0333 77.7445C70.6333 76.4111 70.3333 74.7889 69.5333 73.5778C68.7333 72.3667 67.4777 71.4889 66.1555 70.8667C65.1999 70.4111 64.1777 70.0556 63.3999 69.3444C62.6222 68.6333 62.1666 67.4222 62.6888 66.5C62.8888 66.1444 63.2222 65.8667 63.4111 65.5111C63.7888 64.8222 63.6333 63.9444 63.2111 63.2778C63.1333 63.1667 63.0444 63.0444 62.9333 62.9Z" fill="#0E538C"/>
<path d="M38.7778 94.5555H94.6667V99.1111H38.7778V94.5555Z" fill="#CCE9FF"/>
<path d="M64 82.8889L70.8889 87.7778L79.3333 105.222H77.7778L68.3333 89.7778C68.3333 89.7778 65.1111 89.8889 64 88.8889C62.8889 87.8889 56.5 83.5555 56.5 83.5555L64 82.8889Z" fill="#0B4870"/>
<path d="M51.811 81.4889C50.5555 84.8889 51.4444 89.6667 55.6666 89.8889C59.8888 90.1111 61.2221 89.8889 61.2221 89.8889L69.4444 106.556H71.3332L64.8888 87.8889L57.0555 83.5555L51.811 81.4889Z" fill="#0E538C"/>
<path d="M58.2221 62.1111C59.3332 63.5555 61.9999 67.5555 62.9999 72C63.9999 76.4444 66.7776 82.8889 66.7776 82.8889H63.5554L60.4443 72.3333L57.5554 62.4444L58.2221 62.1111Z" fill="#4EA3FB"/>
<path d="M61.6444 56.2111C61.8111 58.9333 60.6222 60.8 58.9222 60.8889C57.2222 60.9778 56.1111 58.5111 56.6222 56.2111C57.8111 54.1667 59.4333 54 59.4333 54H60.4556L61.6444 56.2111Z" fill="#FFE3CA"/>
<path d="M60.5111 54.5889C60.2 55.5444 59.5111 56.3667 58.6222 56.8333C57.7333 57.3 56.6666 57.4111 55.7 57.1222L58.1222 53.6667H60.2L62.1888 55.2445L61.8888 57.0556C61.1111 56.4667 60.5111 54.5889 60.5111 54.5889Z" fill="#0E538C"/>
<path d="M58.4112 60.5667C58.0557 61.9445 58.1668 63.3889 58.1668 63.6111C57.8334 64.0556 56.2779 63.9445 56.0557 62.3889C56.389 60.3889 57.0557 58.1667 57.0557 58.1667L57.6112 59.3889L58.4112 60.5667Z" fill="#FFE3CA"/>
<path d="M56.2778 61.2111C54.8889 61.6667 50.2222 63.7778 50 64.2222C50.3333 65.4445 52 83.5556 52 83.5556H59.5556C59.5556 83.5556 58.5556 73.5556 59.1111 72.8889C59.6667 72.2222 61.4444 69.8889 61.2222 69.5556C61 69.2222 58.1778 62.0556 58.1778 62.0556L56.2778 61.2111Z" fill="#2A94F4"/>
<path d="M49.9999 64.2222C48.911 65.0556 44.3332 72.5556 45.7777 76.5556C47.2221 80.5556 51.9443 82.9111 51.9443 82.9111V80.7111C51.9443 80.7111 48.111 77.6667 48.3332 75.4445C48.5555 73.2222 51.2221 68.6667 51.2221 68.6667L49.9999 64.2222Z" fill="#4EA3FB"/>
<path d="M67.9001 84.8333H51.5445C51.0334 84.8333 50.6112 84.4111 50.6112 83.9L50.1667 73.4333C50.1667 72.9222 50.589 72.5 51.1001 72.5H68.1223C68.6334 72.5 69.0556 72.9222 69.0556 73.4333L68.8334 83.9C68.8334 84.4111 68.4112 84.8333 67.9001 84.8333Z" fill="#FFBE55"/>
<path d="M71.0667 106.556C72.1667 106.8 73.6556 108.011 74.3667 108.633C74.5111 108.756 74.4222 109 74.2222 109C73.0778 108.978 70.4889 108.856 69.8889 108.344C69.1111 107.678 69.3333 106.567 69.3333 106.567H71.0667V106.556ZM79.3111 105.178C80.2889 105.444 81.5778 106.578 82.2222 107.189C82.3667 107.322 82.2556 107.556 82.0667 107.544C80.9889 107.467 78.6778 107.256 78.1556 106.756C77.4667 106.111 77.7222 105.1 77.7222 105.1L79.3111 105.178Z" fill="#1A87D8"/>
<path d="M59.6667 80.3333C60.5871 80.3333 61.3333 79.5871 61.3333 78.6667C61.3333 77.7462 60.5871 77 59.6667 77C58.7462 77 58 77.7462 58 78.6667C58 79.5871 58.7462 80.3333 59.6667 80.3333Z" fill="white"/>
<path d="M45.0001 102.333L42.8889 101.111L40.7778 102.333V94.5555H45.0001V102.333ZM77.7334 56.2778C77.7334 56.4889 77.6556 56.6778 77.5223 56.8333C77.6556 56.9778 77.7334 57.1778 77.7334 57.3889V58.0778C77.7334 58.2222 77.6889 58.3667 77.6223 58.4889C77.6889 58.6111 77.7334 58.7555 77.7334 58.9V59.5889C77.7334 60.0444 77.3667 60.4111 76.9112 60.4111H69.7556C69.3001 60.4111 68.9334 60.0444 68.9334 59.5889V58.8889C68.9334 58.7444 68.9778 58.6 69.0445 58.4778C68.9778 58.3555 68.9334 58.2111 68.9334 58.0667V57.3778C68.9334 57.1667 69.0112 56.9778 69.1445 56.8222C69.0112 56.6778 68.9334 56.4778 68.9334 56.2667V55.5778C68.9334 55.1222 69.3001 54.7555 69.7556 54.7555H76.9112C77.3667 54.7555 77.7334 55.1222 77.7334 55.5778V56.2778ZM83.4445 40.7C83.4445 44.7111 81.1112 48.1667 77.7334 49.8111V53.5444C77.7334 53.8222 77.5001 54.0555 77.2223 54.0555H69.4445C69.1667 54.0555 68.9334 53.8222 68.9334 53.5444V49.8111C65.5556 48.1778 63.2223 44.7111 63.2223 40.7C63.2223 35.1111 67.7445 30.5889 73.3334 30.5889C78.9223 30.5889 83.4445 35.1222 83.4445 40.7Z" fill="#FFBE55"/>
<path opacity="0.23" d="M76.7778 56.8889H70M76.7778 58.4445H70" stroke="#7F7F7F" stroke-width="0.222222" stroke-miterlimit="10" stroke-linecap="round"/>
<path d="M75.0666 41.9445C74.9444 41.8333 74.7666 41.7778 74.5778 41.8C74.3444 41.8222 74.1222 41.9556 73.9777 42.1445C73.8555 42.3111 73.7889 42.5111 73.7555 42.7C73.6555 42.6445 73.5444 42.5889 73.4444 42.5222L73.4111 42.5H73.2666L73.2333 42.5222C73.1222 42.5889 73.0222 42.6445 72.9222 42.7C72.8889 42.5111 72.8222 42.3111 72.7 42.1445C72.5666 41.9556 72.3333 41.8222 72.1 41.8C71.9111 41.7778 71.7444 41.8333 71.6111 41.9445C71.4444 42.1 71.3889 42.3222 71.4444 42.5556C71.5333 42.8667 71.7889 43.1222 72.0889 43.1778C72.2777 43.2111 72.4555 43.2 72.6444 43.1556C72.9222 46.7667 73.0333 50.4222 72.9555 54.0333H73.2889C73.3666 50.4111 73.2555 46.7445 72.9777 43.1333C72.9777 43.1 72.9778 43.0667 72.9666 43.0333C73.1 42.9778 73.2222 42.9111 73.3444 42.8333C73.4666 42.9 73.5889 42.9778 73.7222 43.0333C73.7222 43.0667 73.7222 43.1 73.7111 43.1333C73.4333 46.7445 73.3222 50.4111 73.4 54.0333H73.7333C73.6555 50.4222 73.7666 46.7556 74.0444 43.1556C74.2222 43.2 74.4111 43.2222 74.6 43.1778C74.8889 43.1222 75.1555 42.8667 75.2444 42.5556C75.2889 42.3222 75.2333 42.1 75.0666 41.9445ZM72.1444 42.8667C71.9777 42.8333 71.8111 42.6667 71.7555 42.4778C71.7333 42.4 71.7222 42.2778 71.8222 42.2C71.8778 42.1445 71.9555 42.1333 72.0111 42.1333H72.0555C72.1889 42.1445 72.3333 42.2222 72.4222 42.3445C72.5222 42.4778 72.5778 42.6445 72.6 42.8333C72.4444 42.8778 72.3 42.8889 72.1444 42.8667ZM74.9111 42.4778C74.8555 42.6667 74.7 42.8333 74.5222 42.8667C74.3778 42.9 74.2222 42.8778 74.0778 42.8333C74.1111 42.6445 74.1555 42.4778 74.2555 42.3445C74.3333 42.2333 74.4777 42.1556 74.6222 42.1333C74.6889 42.1222 74.7778 42.1333 74.8555 42.2C74.9333 42.2778 74.9222 42.4 74.9111 42.4778Z" fill="white"/>
<path d="M70.6666 32.4444C68.2221 33.3333 64.2221 36.5556 64.5555 41.7778" stroke="white" stroke-width="0.444444" stroke-miterlimit="10" stroke-linecap="round"/>
<path d="M57.2777 50.5556C58.8425 50.5556 60.111 49.287 60.111 47.7222C60.111 46.1574 58.8425 44.8889 57.2777 44.8889C55.7129 44.8889 54.4443 46.1574 54.4443 47.7222C54.4443 49.287 55.7129 50.5556 57.2777 50.5556Z" fill="#FFBE55"/>
<path d="M87.611 39.6667C88.3167 39.6667 88.8888 39.0946 88.8888 38.3889C88.8888 37.6832 88.3167 37.1111 87.611 37.1111C86.9053 37.1111 86.3333 37.6832 86.3333 38.3889C86.3333 39.0946 86.9053 39.6667 87.611 39.6667Z" fill="#FFBE55"/>
<path d="M83.4444 60.5555C84.6103 60.5555 85.5555 59.6104 85.5555 58.4444C85.5555 57.2785 84.6103 56.3333 83.4444 56.3333C82.2784 56.3333 81.3333 57.2785 81.3333 58.4444C81.3333 59.6104 82.2784 60.5555 83.4444 60.5555Z" fill="#FFBE55"/>
<path d="M63.2222 31.1111C64.3881 31.1111 65.3333 30.166 65.3333 29C65.3333 27.8341 64.3881 26.8889 63.2222 26.8889C62.0563 26.8889 61.1111 27.8341 61.1111 29C61.1111 30.166 62.0563 31.1111 63.2222 31.1111Z" fill="#FFBE55"/>
<path opacity="0.14" d="M45.0001 102.333L42.8889 101.111L40.7778 102.333V94.5555H45.0001V102.333Z" fill="#0C0C0C"/>
</svg>
